<svg xmlns="http://www.w3.org/2000/svg" viewBox="0 0 1020.5 1020.5"><style><![CDATA[.D{stroke-width:20}.E{stroke-miterlimit:10}]]></style><circle cx="510.2" cy="510.2" r="425.2" opacity=".1"/><g fill="#fff" class="D E"><path d="M935.5 553.1c-1.5-17.6-13.7-32.7-31.3-37.6-14.1-37.6-56.1-56.6-94.2-42.5-18.1 6.9-32.7 20.5-41 38.1-1.5 0-2.9-.5-4.4-.5-23.4 0-42.5 19.1-42.5 42.5s19.1 42.5 42.5 42.5H892v-1.5c25.4-4.9 43.5-21 43.5-41zM425.3 340.7c0-35.1-30.7-64.5-71.3-69.8-3.9-40-46.9-71.7-98.6-71.7s-94.7 31.7-98.6 71.7c-40.5 5.4-71.3 34.7-71.3 69.8s30.7 63.9 70.8 69.8v1H355v-1c39.5-5.8 70.3-35.1 70.3-69.8z" stroke="#666"/><path d="M510.3 85.4v227h340.3l-77.1-113.3 77.1-113.3H510.3v-.4z" stroke="#ff0b00"/><g stroke="#666"><path d="M99.2,935.8l411.1-467.7l411.1,467.7H99.2z"/><path d="M99.2,935.8l411.1-467.7l184.1,467.7H99.2z"/></g><path d="M850.5 85.4H808l-77.1 113.3L808 312h42.5l-77.1-113.3 77.1-113.3zm-198.7 42.5c-23.4 0-42.5 19.1-42.5 42.5 0 18.1 11.2 34.2 28.3 40v59.1h28.3v-59.1c22-7.8 33.7-32.2 25.9-54.2-5.8-17.1-21.9-28.3-40-28.3zM496.1 85.4h28.3v411.1h-28.3V85.4z" stroke="#ff0b00"/><g stroke="#666"><path d="M411.1 694.7l42.5-84.9 56.6 84.9 56.6-84.9 56.6 84.9 26.9-67.4-140-159.6-126.5 144 27.3 83z"/><path d="M510.3 468.1l-126.5 144 27.3 83 42.5-84.9 56.6 84.9 56.6-84.9-56.5-142.1z"/></g></g></svg>